<svg width="38" height="38" viewBox="0 0 38 38" fill="none" xmlns="http://www.w3.org/2000/svg">
<g clip-path="url(#clip0_10637_23016)">
<path d="M8.97955 38C6.7705 37.9997 4.97969 36.2091 4.97955 34C4.97955 32.7232 5.57941 31.5879 6.5108 30.8555C6.01655 29.1838 5.60284 27.6704 5.1065 26.0176C4.44377 23.8104 5.10116 21.3791 6.88971 19.8643L15.0889 12.9209C15.0189 12.6246 14.9805 12.3158 14.9805 11.998C14.9805 10.1857 16.1862 8.65567 17.8389 8.16406L17.8389 1.14258C17.8567 0.428482 18.368 2.24113e-05 18.9991 -1.23663e-06C19.6302 -1.18264e-06 20.1239 0.428458 20.1241 1.14258L20.1241 8.16504C21.7762 8.65702 22.9815 10.1861 22.9815 11.998C22.9815 12.3216 22.9427 12.6362 22.8702 12.9375L31.1231 19.9268C32.861 21.3988 33.559 23.7624 32.8995 25.9424L31.421 30.8301C32.3701 31.5615 32.9825 32.709 32.9825 34C32.9823 36.209 31.1915 37.9997 28.9825 38C26.7732 38 24.9816 36.2092 24.9815 34C24.9815 31.7907 26.7731 29.999 28.9825 29.999C29.0827 29.999 29.1819 30.0054 29.2803 30.0127L30.712 25.2803C31.1076 23.9723 30.6883 22.5541 29.6456 21.6709L21.6944 14.9375C21.2519 15.3462 20.7166 15.6556 20.1241 15.832L20.1241 23.9092C21.4555 24.38 22.41 25.649 22.4102 27.1416C22.4102 29.0353 20.8743 30.5713 18.9805 30.5713C17.087 30.571 15.5518 29.0352 15.5518 27.1416C15.552 25.6486 16.507 24.3797 17.8389 23.9092L17.8389 15.832C17.2413 15.6543 16.7027 15.3405 16.2579 14.9268L8.36725 21.6084C7.30237 22.5104 6.88332 23.9861 7.29596 25.3603C7.79327 27.0164 8.18706 28.4554 8.64557 30.0156C8.75575 30.0065 8.86701 29.999 8.97955 29.999C11.1889 29.999 12.9805 31.7907 12.9805 34C12.9804 36.2092 11.1888 38 8.97955 38Z" fill="black"/>
</g>
<defs>
<clipPath id="clip0_10637_23016">
<rect width="38" height="38" fill="white"/>
</clipPath>
</defs>
</svg>
