<svg width="38" height="38" viewBox="0 0 38 38" fill="none" xmlns="http://www.w3.org/2000/svg">
<path d="M29.0764 15.6124C30.5211 16.836 31.101 18.8009 30.5527 20.6129L28.443 27.5849C28.2911 28.087 27.7609 28.3709 27.2588 28.219C26.7566 28.067 26.4727 27.5369 26.6247 27.0347L28.7343 20.0626C29.0633 18.9754 28.7151 17.7966 27.8483 17.0625L19.9348 10.3598L19.9348 22.3223C19.9348 22.847 19.5094 23.2723 18.9848 23.2723C18.4765 23.2723 18.0614 22.8732 18.0359 22.3712L18.0348 22.3223L18.0348 10.3431L10.1625 17.0108C9.27738 17.7605 8.92888 18.9867 9.27185 20.1289C9.97826 22.4813 10.4326 24.3067 11.3354 27.0087C11.5016 27.5064 11.233 28.0446 10.7353 28.2108C10.2377 28.3771 9.6995 28.1085 9.53324 27.6108C8.62079 24.8798 8.13033 22.9339 7.4521 20.6753C6.90122 18.8407 7.44801 16.8201 8.93462 15.561L18.0348 7.85311V0C18.5095 0.000463867 18.4596 0.000802736 18.9843 0.000802736C19.509 0.000802781 19.5783 0 19.9348 1.69873e-07V7.86981L29.0764 15.6124Z" fill="white"/>
<path d="M30.6218 27.3098C30.6218 29.1461 29.1331 30.6348 27.2968 30.6348C25.4605 30.6348 23.9718 29.1461 23.9718 27.3098C23.9718 25.4734 25.4605 23.9848 27.2968 23.9848C29.1331 23.9848 30.6218 25.4734 30.6218 27.3098Z" fill="white"/>
<path d="M13.9968 27.3098C13.9968 29.1461 12.5081 30.6348 10.6718 30.6348C8.83545 30.6348 7.3468 29.1461 7.3468 27.3098C7.3468 25.4734 8.83545 23.9848 10.6718 23.9848C12.5081 23.9848 13.9968 25.4734 13.9968 27.3098Z" fill="white"/>
<path d="M22.3093 9.02228C22.3093 10.8586 20.8206 12.3473 18.9843 12.3473C17.148 12.3473 15.6593 10.8586 15.6593 9.02228C15.6593 7.18594 17.148 5.69729 18.9843 5.69729C20.8206 5.69729 22.3093 7.18594 22.3093 9.02228Z" fill="white"/>
<path d="M21.8343 21.6098C21.8343 23.1838 20.5583 24.4598 18.9843 24.4598C17.4103 24.4598 16.1343 23.1838 16.1343 21.6098C16.1343 20.0358 17.4103 18.7598 18.9843 18.7598C20.5583 18.7598 21.8343 20.0358 21.8343 21.6098Z" fill="white"/>
</svg>
