<svg width="38" height="38" viewBox="0 0 38 38" fill="none" xmlns="http://www.w3.org/2000/svg">
<rect width="38" height="38" rx="12" fill="#4434FF"/>
<path d="M10.6731 30.6348C8.83687 30.6346 7.34885 29.1458 7.34885 27.3096C7.34891 26.2473 7.84783 25.303 8.62326 24.6943C8.21265 23.3055 7.86571 22.049 7.45334 20.6758C6.90247 18.8412 7.4492 16.8197 8.93576 15.5605L15.7512 9.78906C15.6931 9.54286 15.6614 9.28642 15.6613 9.02246C15.6613 7.51617 16.6628 6.24465 18.0363 5.83594L18.0363 -1.11215e-06C18.511 0.000462658 18.4612 0.000975391 18.9856 0.000975533C19.5102 0.000975578 19.5802 -1.11589e-06 19.9367 -9.46012e-07L19.9367 5.83594C21.3097 6.24503 22.3108 7.5166 22.3108 9.02246C22.3107 9.29118 22.2792 9.55249 22.219 9.80273L29.0783 15.6123C30.5229 16.8359 31.1022 18.8013 30.5539 20.6133L29.3254 24.6758C30.1142 25.2837 30.6232 26.2367 30.6233 27.3096C30.6233 29.1459 29.1344 30.6348 27.2981 30.6348C25.4619 30.6346 23.9738 29.1458 23.9738 27.3096C23.974 25.4734 25.4619 23.9846 27.2981 23.9844C27.3814 23.9844 27.4643 23.9891 27.5461 23.9951L28.7356 20.0625C29.0645 18.9753 28.7166 17.7966 27.8498 17.0625L21.2424 11.4648C20.8746 11.8048 20.4294 12.0622 19.9367 12.209L19.9367 18.9258C21.0425 19.3175 21.836 20.3694 21.8362 21.6094C21.8362 23.1834 20.5596 24.46 18.9856 24.46C17.4117 24.4598 16.136 23.1833 16.136 21.6094C16.1361 20.3689 16.93 19.3172 18.0363 18.9258L18.0363 12.21C17.5395 12.0622 17.0916 11.801 16.7219 11.457L10.1643 17.0107C9.27919 17.7605 8.93068 18.9867 9.27365 20.1289C9.68708 21.5056 10.0175 22.7009 10.3986 23.998C10.4892 23.9906 10.5806 23.9844 10.6731 23.9844C12.5093 23.9844 13.9981 25.4733 13.9983 27.3096C13.9983 29.1459 12.5094 30.6348 10.6731 30.6348Z" fill="white"/>
</svg>
